<?xml version="1.0" encoding="utf-8"?>
<!DOCTYPE svg PUBLIC "-//W3C//DTD SVG 1.0//EN" "http://www.w3.org/TR/2001/REC-SVG-20010904/DTD/svg10.dtd">
<svg version="1.0" xmlns="http://www.w3.org/2000/svg" width="481px" height="545px" viewBox="0 0 481 545" preserveAspectRatio="xMidYMid meet">
 <g fill="#fffdfd">
  <path d="M0 272.50 l0 -272.50 14.50 0 14.50 0 0 1.25 c0 0.85 -0.30 1.25 -0.85 1.25 -0.45 0 -2.75 0.90 -5.05 2.05 -7.20 3.45 -13.35 10.45 -16.80 19.05 -2.25 5.70 -2.85 8.90 -3.30 17.65 -0.60 11.35 -0.60 371.40 0 383 0.50 10.30 1.45 14.70 4.50 21.05 5.35 11.10 13.75 17.65 24 18.65 2.70 0.25 32.80 0.50 69.50 0.50 35.60 0.05 64.90 0.05 65.15 0.05 0.20 0 0.30 6.35 0.25 14.15 l-0.15 14.10 -71 0.25 c-57.65 0.20 -71.40 0.40 -73 0.95 -4.05 1.35 -8.75 4.10 -11.70 6.85 -12.30 11.40 -10.30 28.65 4.45 37.95 3.10 2 8.30 3.75 11.05 3.75 2.25 0 2.95 0.50 2.95 2.05 0 0.25 -6.05 0.45 -14.50 0.45 l-14.50 0 0 -272.50z"/>
  <path d="M452 543.80 c0 -1.10 0.20 -1.20 3.50 -1.40 6.70 -0.50 15.40 -6 19.45 -12.35 2.40 -3.70 3.55 -7.65 3.55 -12.05 0 -8.90 -5.60 -17.30 -14.60 -21.80 -6.60 -3.35 -2.60 -3.20 -83.55 -3.20 l-73.35 0 0.10 -14.25 0.15 -14.25 68.50 -0.05 c37.70 -0.05 70.75 -0.25 73.50 -0.50 4.35 -0.40 5.55 -0.70 9.20 -2.50 9.10 -4.50 15.65 -13.85 18.70 -26.65 l1.05 -4.55 0.15 -189.25 c0.10 -115.15 0 -192.95 -0.30 -198.75 -0.55 -10.65 -1.60 -15.40 -4.85 -21.95 -4.45 -8.85 -13.05 -16.35 -20.15 -17.55 -1.75 -0.30 -2.05 -0.50 -2.05 -1.55 l0 -1.20 15 0 15 0 0 272.50 0 272.50 -14.50 0 -14.50 0 0 -1.20z"/>
  <path d="M20.30 536.45 c-5.25 -1.80 -8.55 -4.65 -11.20 -9.65 -1.25 -2.40 -1.35 -3 -1.35 -8.80 0 -6.15 0 -6.30 1.70 -9.40 2.10 -3.85 4.70 -6.25 9 -8.30 l3.30 -1.55 218.75 0 218.75 0 3.30 1.55 c4.30 2.05 6.90 4.45 9 8.30 1.70 3.10 1.70 3.25 1.70 9.40 0 6.15 0 6.30 -1.70 9.40 -2.10 3.85 -4.70 6.25 -9 8.30 l-3.30 1.55 -218 0.10 -218 0.10 -2.95 -1z m340.95 -18.45 l0 -9.25 -14 0 -14 0 -0.15 8.75 c-0.05 4.80 0 9 0.15 9.35 0.15 0.55 3.10 0.65 14.10 0.55 l13.90 -0.15 0 -9.25z m38.75 1 c0.15 -4.55 0.15 -8.75 0.05 -9.40 l-0.15 -1.10 -13.85 0.10 -13.80 0.15 -0.15 8.75 c-0.05 4.80 0 9 0.15 9.35 0.15 0.55 3.05 0.65 13.85 0.55 l13.65 -0.15 0.25 -8.25z m38.75 -1 l0 -9.25 -14 0 -14 0 -0.15 8.75 c-0.05 4.80 0 9 0.15 9.35 0.15 0.55 3.10 0.65 14.10 0.55 l13.90 -0.15 0 -9.25z m-402.65 3.15 c3.40 -3.20 3.65 -6.30 0.75 -9 -3.15 -3 -5.20 -3.35 -7.85 -1.40 -3.50 2.60 -4.35 5.50 -2.50 8.55 2.40 3.85 6.65 4.70 9.60 1.85z"/>
  <path d="M336 518 l0 -6.50 11.25 0 11.25 0 0 6.50 0 6.50 -11.25 0 -11.25 0 0 -6.50z"/>
  <path d="M374.50 518 l0 -6.50 11.50 0 11.50 0 0 6.50 0 6.50 -11.50 0 -11.50 0 0 -6.50z"/>
  <path d="M413.50 518 l0 -6.50 11.15 0 11.20 0 0.30 5.75 c0.20 3.15 0.20 6.10 0.05 6.50 -0.25 0.65 -2.05 0.75 -11.50 0.75 l-11.20 0 0 -6.50z"/>
  <path d="M171.75 492.40 c-0.15 -0.35 -0.20 -6.70 -0.15 -14.10 0.15 -11.60 0.25 -13.50 0.95 -13.95 0.45 -0.30 2.10 -0.35 4.10 -0.15 l3.35 0.40 0 14.20 0 14.20 -4 0 c-2.75 0 -4.10 -0.20 -4.25 -0.60z"/>
  <path d="M185.40 492.65 c-0.10 -0.25 -0.25 -6.50 -0.35 -13.95 -0.10 -11.40 0 -13.60 0.60 -14.15 0.50 -0.35 2 -0.55 4.20 -0.45 l3.40 0.15 0.15 14.40 0.10 14.35 -3.95 0 c-2.20 0 -4.05 -0.15 -4.15 -0.35z"/>
  <path d="M198.75 492.40 c-0.15 -0.35 -0.20 -6.70 -0.10 -14.15 l0.10 -13.50 2.50 -0.40 c1.35 -0.25 3.25 -0.30 4.10 -0.10 l1.65 0.30 0 14.20 0 14.25 -4 0 c-2.75 0 -4.10 -0.20 -4.25 -0.60z"/>
  <path d="M212.60 478.65 l0.15 -14.40 3.75 0 3.75 0 0.15 14.40 0.10 14.35 -4 0 -4 0 0.10 -14.35z"/>
  <path d="M226.10 478.65 l0.15 -14.40 2.70 -0.15 c1.50 -0.10 3.25 -0.05 3.90 0.15 l1.15 0.25 0 14.25 0 14.25 -4 0 -4 0 0.10 -14.35z"/>
  <path d="M239.60 478.65 l0.15 -14.40 3.75 0 3.75 0 0.15 14.40 0.10 14.35 -4 0 -4 0 0.10 -14.35z"/>
  <path d="M253 478.75 l0 -14.25 4 0 4 0 0 14.25 0 14.25 -4 0 -4 0 0 -14.25z"/>
  <path d="M266.60 478.65 l0.15 -14.40 3.75 0 3.75 0 0.15 14.40 0.10 14.35 -4 0 -4 0 0.10 -14.35z"/>
  <path d="M280 478.80 c0 -16.35 -0.40 -15.20 5.05 -14.55 l2.95 0.35 0 14.20 0 14.20 -4 0 -4 0 0 -14.20z"/>
  <path d="M293.60 478.65 l0.15 -14.40 3.75 0 3.75 0 0.15 14.40 0.10 14.35 -4 0 -4 0 0.10 -14.35z"/>
  <path d="M26.45 458.30 c-7.55 -2.05 -13.95 -9.70 -17.05 -20.55 l-1.15 -4 0 -200.25 c0 -190.65 0.05 -200.45 0.90 -204 2.15 -8.95 7.90 -17.25 14.10 -20.30 l3 -1.45 214.25 0 214.25 0 2.95 1.35 c6.05 2.85 12 11.40 14.15 20.40 0.85 3.55 0.90 13.35 0.90 203.75 l0 200 -1.10 4.20 c-2.50 9.30 -7.65 16.50 -14.05 19.65 l-3.35 1.65 -212.75 0.10 c-167.50 0.05 -213.25 -0.05 -215.05 -0.55z m413.15 -11.35 c9 -1.90 16.85 -10.75 20.05 -22.60 l1.10 -4.10 0 -187.25 0 -187.25 -1.15 -4 c-2.90 -10.10 -8.25 -17.30 -15.35 -20.80 l-3.50 -1.70 -200.25 0 -200.25 0 -3.35 1.65 c-8.20 4 -13.80 12.30 -16.10 23.85 -0.75 3.65 -0.80 20.50 -0.65 190 l0.10 186 1.10 3.80 c0.65 2.05 1.60 4.90 2.20 6.25 3.60 8.15 11.25 15.05 17.90 16.20 3.85 0.65 395.05 0.60 398.15 -0.05z"/>
  <path d="M212.95 413.65 c-8.35 -8.75 -20.05 -20.95 -26 -27.15 -5.90 -6.20 -14.75 -15.40 -19.60 -20.50 l-8.85 -9.25 0 -24.85 0 -24.90 10.50 0 10.50 0 0 -25.50 0 -25.50 -10.35 -0.10 -10.40 -0.15 -0.15 -17.10 -0.10 -17.15 -3.50 0 -3.50 0 0.10 20.65 0.15 20.60 10.25 0 10.25 0 0.15 18.60 0.10 18.65 -10.35 0.10 -10.40 0.15 -0.25 30.75 -0.25 30.75 -10.70 24 c-5.85 13.20 -11.05 24.90 -11.55 26 -0.50 1.10 -2.40 5.45 -4.25 9.65 l-3.35 7.60 -1.95 0 c-1.80 0 -4.90 -2.35 -44.80 -33.65 -38.60 -30.30 -42.90 -33.80 -43.05 -35.15 -0.10 -1 0.60 -3.25 1.95 -6.25 1.15 -2.60 4.50 -10.30 7.45 -17.20 2.95 -6.85 7.70 -17.80 10.50 -24.25 2.80 -6.45 8.30 -19.15 12.25 -28.25 13.15 -30.50 39.15 -90.45 41.65 -96.25 3.80 -8.80 16.40 -37.85 24.35 -56.25 3.95 -9.05 11.90 -27.50 17.75 -41 16.95 -39.15 18.95 -43.80 20.40 -47.10 1.25 -3.05 1.40 -3.15 3.15 -3.15 1.75 0 1.80 0.05 5.95 7.15 2.30 3.90 6.60 11.15 9.55 16.10 6.40 10.85 47.55 80.70 51.15 86.85 1.40 2.40 2.65 4.40 2.80 4.40 0.15 0 3.80 -6.05 8.10 -13.40 4.30 -7.35 14.05 -23.90 21.70 -36.85 7.60 -12.95 15.55 -26.40 17.65 -30 2.10 -3.55 7.50 -12.75 12 -20.35 l8.15 -13.90 1.90 0 c1.85 0 1.85 0 3.50 3.90 0.85 2.10 4.55 10.60 8.10 18.85 3.60 8.25 8.30 19.15 10.50 24.25 2.20 5.10 5.75 13.30 7.90 18.25 7.90 18.25 22.10 50.95 29.15 67.25 4 9.20 9.85 22.70 13 30 3.15 7.30 14.90 34.40 26.10 60.25 11.20 25.85 22.60 52.20 25.35 58.50 2.75 6.35 6.70 15.45 8.75 20.25 2.10 4.80 4.55 10.40 5.45 12.45 1.90 4.15 2.10 6.15 0.80 7.45 -0.50 0.45 -3.50 2.85 -6.65 5.35 -6.85 5.35 -16.75 13.15 -20.25 15.95 -1.40 1.15 -4.90 3.85 -7.70 6.05 -4.95 3.85 -8.25 6.45 -21 16.50 -3.15 2.50 -8.30 6.55 -11.45 9 -3.15 2.50 -8.45 6.70 -11.85 9.40 -5.45 4.25 -6.40 4.85 -8.15 4.85 l-1.95 0 -2.10 -4.85 c-3.80 -8.65 -15.70 -35.50 -21.80 -49.15 l-5.95 -13.25 -0.25 -30.75 -0.25 -30.75 -10.35 -0.15 -10.40 -0.10 0 -18.70 0 -18.65 10.40 0.05 10.35 0.05 0.15 -20.60 0.10 -20.65 -3.50 0 -3.50 0 -0.10 17.15 -0.15 17.10 -10.35 0.15 -10.40 0.10 0 25.50 0 25.50 10.40 0.10 10.35 0.15 0.15 24.75 0.10 24.80 -9.35 9.70 c-5.10 5.35 -14.40 15.05 -20.60 21.50 -6.20 6.50 -17.70 18.45 -25.50 26.65 l-14.25 14.85 -4.15 0 -4.15 0 0 -23.90 0 -23.90 12.80 -10.45 c7.05 -5.75 13.05 -10.95 13.35 -11.60 0.45 -0.95 0.30 -1.35 -0.65 -2.40 -0.65 -0.70 -1.55 -1.25 -2.05 -1.25 -0.80 0 -4.75 3.10 -18.85 14.65 -9.20 7.55 -7.50 7.90 -22.90 -4.65 -6.75 -5.50 -12.65 -10 -13.15 -10 -1.40 0 -3.20 2.25 -2.80 3.45 0.15 0.60 6.40 6 13.80 12.10 l13.45 11 0 23.50 0 23.45 -4.70 0 -4.65 0 -15.20 -15.85z m30.70 -54.90 c1 -0.70 2.30 -2.15 2.85 -3.25 0.95 -1.90 0.95 -2.05 0.20 -4.05 -1 -2.40 -4.15 -4.95 -6.20 -4.95 -2 0 -4.60 1.95 -5.95 4.55 l-1.25 2.30 1.40 2.35 c1.50 2.60 3.85 4.30 5.80 4.30 0.70 0 2.10 -0.55 3.15 -1.25z m-42.65 -119.60 l6.35 -3.90 -6.30 -3.85 c-3.45 -2.15 -6.45 -3.90 -6.65 -3.90 -0.25 0 -0.40 0.65 -0.40 1.40 0 2.50 -0.50 2.60 -10.35 2.60 l-9.15 0 0 3.75 0 3.75 9.25 0 c8.60 0 9.25 0.05 9.75 0.95 0.25 0.55 0.50 1.45 0.50 2 0 0.60 0.15 1.05 0.30 1.05 0.20 0 3.20 -1.75 6.70 -3.85z m69.20 -44.55 c0.55 -0.65 0.75 -1.40 0.55 -2.05 -0.15 -0.55 -5.75 -5.45 -12.40 -10.90 -6.65 -5.40 -13.20 -10.80 -14.55 -12 -1.30 -1.20 -2.80 -2.15 -3.30 -2.15 -0.50 0 -2 0.95 -3.30 2.15 -2.15 1.90 -8.85 7.40 -14.70 12.10 -9.35 7.55 -11.95 9.80 -12.30 10.85 -0.35 1.15 1.50 3.40 2.85 3.40 0.50 0 6.40 -4.50 13.20 -10 11.80 -9.65 12.35 -10 14.50 -10 1.20 0 2.30 0.20 2.45 0.45 0.15 0.25 2.95 2.60 6.15 5.20 3.25 2.65 8.70 7.05 12.10 9.80 6.50 5.30 6.70 5.35 8.75 3.15z"/>
 </g>
 <g fill="#d7261e">
  <path d="M27.50 544.50 c-0.40 -0.25 -1.75 -0.50 -3 -0.50 -1.25 0 -3.70 -0.55 -5.50 -1.15 -7.95 -2.85 -14.40 -9.15 -17.05 -16.65 -1.35 -3.90 -1.45 -11.20 -0.20 -15.45 2.30 -8.10 9.70 -15.15 19 -18.30 1.60 -0.55 15.35 -0.75 73 -0.95 l71 -0.25 0.15 -12.60 c0.10 -9.95 0 -12.65 -0.50 -12.65 -24.45 0.25 -131.05 -0.20 -134.40 -0.55 -10.25 -1 -18.65 -7.55 -24 -18.65 -3.05 -6.35 -4 -10.75 -4.50 -21.05 -0.60 -11.60 -0.60 -374.65 0 -386 0.45 -8.75 1.05 -11.95 3.30 -17.65 3.45 -8.60 9.60 -15.60 16.80 -19.05 2.30 -1.15 4.60 -2.05 5.05 -2.05 0.45 0 0.85 -0.20 0.85 -0.50 0 -0.35 71.15 -0.50 212.50 -0.50 127.70 0 212.50 0.20 212.50 0.45 0 0.25 0.90 0.60 2.05 0.80 7.10 1.20 15.70 8.70 20.15 17.55 3.25 6.55 4.30 11.30 4.85 21.95 0.30 5.80 0.40 84.20 0.30 200.25 l-0.15 190.75 -1.05 4.55 c-3.05 12.80 -9.60 22.15 -18.70 26.65 -3.65 1.80 -4.85 2.15 -9.20 2.50 -2.75 0.25 -35.80 0.50 -73.50 0.50 l-68.50 0.05 -0.15 12.75 -0.10 12.75 73.35 0 c61.05 0 73.95 0.15 76.70 0.70 6.75 1.45 14.30 6.60 17.90 12.25 2.65 4.10 3.55 7.55 3.55 13.55 0 6 -0.90 9.45 -3.55 13.55 -4.05 6.35 -12.75 11.85 -19.45 12.35 -1.95 0.10 -3.50 0.45 -3.50 0.65 0 0.65 -425.05 0.55 -426 -0.05z m433.55 -10.30 c4.30 -2.05 6.90 -4.45 9 -8.30 1.60 -2.95 1.70 -3.45 1.70 -7.90 0 -4.45 -0.10 -4.95 -1.70 -7.90 -2.10 -3.85 -4.70 -6.25 -9 -8.30 l-3.30 -1.55 -217.25 0 -217.25 0 -3.30 1.55 c-4.30 2.05 -6.90 4.45 -9 8.30 -1.60 2.95 -1.70 3.45 -1.70 7.90 0 4.20 0.15 5.05 1.35 7.30 2.65 5 5.95 7.85 11.20 9.65 l2.95 1 216.50 -0.10 216.50 -0.10 3.30 -1.55z m-282.55 -55.40 l0 -12.65 -2.10 -0.30 c-1.15 -0.15 -2.40 -0.05 -2.70 0.20 -0.40 0.35 -0.60 4 -0.55 12.60 0 6.65 0.10 12.25 0.20 12.50 0.10 0.20 1.30 0.35 2.70 0.35 l2.45 0 0 -12.70z m13.40 -0.15 l-0.15 -12.90 -2 0 c-1.10 -0.05 -2.25 0.15 -2.55 0.35 -0.40 0.30 -0.50 4.20 -0.40 12.75 0.10 6.85 0.20 12.45 0.20 12.55 0 0.05 1.15 0.10 2.50 0.10 l2.50 0 -0.10 -12.85z m13.60 0.15 c0 -14.15 0.20 -13.40 -3.50 -12.80 l-1.75 0.25 -0.10 12 c-0.05 6.60 0 12.30 0.10 12.65 0.15 0.35 1.15 0.60 2.75 0.60 l2.50 0 0 -12.70z m13.40 -0.15 l-0.15 -12.90 -2.25 0 -2.25 0 -0.15 12.90 -0.10 12.85 2.50 0 2.50 0 -0.10 -12.85z m13.60 0.10 l0 -12.75 -1.20 -0.30 c-0.65 -0.15 -1.75 -0.20 -2.35 -0.10 l-1.20 0.15 -0.15 12.90 -0.10 12.85 2.50 0 2.50 0 0 -12.75z m13.40 -0.10 l-0.15 -12.90 -2.25 0 -2.25 0 -0.15 12.90 -0.10 12.85 2.50 0 2.50 0 -0.10 -12.85z m13.60 0.10 l0 -12.75 -2.50 0 -2.50 0 0 12.75 0 12.75 2.50 0 2.50 0 0 -12.75z m13.40 -0.10 l-0.15 -12.90 -2.25 0 -2.25 0 -0.15 12.90 -0.10 12.85 2.50 0 2.50 0 -0.10 -12.85z m13.60 0.15 l0 -12.70 -1.85 -0.20 c-1.05 -0.15 -2.20 -0.15 -2.50 0 -0.50 0.15 -0.65 3.20 -0.65 12.90 l0 12.70 2.50 0 2.50 0 0 -12.70z m13.40 -0.15 l-0.15 -12.90 -2.25 0 -2.25 0 -0.15 12.90 -0.10 12.85 2.50 0 2.50 0 -0.10 -12.85z m156.20 -23.05 c6.40 -3.15 11.55 -10.35 14.05 -19.65 l1.10 -4.20 0 -198.50 c0 -188.95 -0.05 -198.70 -0.90 -202.25 -2.15 -9 -8.10 -17.55 -14.15 -20.40 l-2.95 -1.35 -212.75 0 -212.75 0 -3 1.45 c-6.20 3.05 -11.95 11.35 -14.10 20.30 -0.85 3.55 -0.90 13.30 -0.90 202.50 l0 198.75 1.15 4 c3.10 10.85 9.50 18.50 17.05 20.55 1.80 0.50 47.20 0.60 213.55 0.55 l211.25 -0.10 3.35 -1.65z"/>
  <path d="M331.75 528.35 c-0.15 -0.35 -0.20 -5.25 -0.15 -10.85 l0.15 -10.25 15.50 0 15.50 0 0 10.75 0 10.75 -15.40 0.15 c-12.20 0.10 -15.45 0 -15.60 -0.55z m25.25 -10.35 l0 -5 -9.75 0 -9.75 0 0 5 0 5 9.75 0 9.75 0 0 -5z"/>
  <path d="M370.70 528.35 c-0.10 -0.35 -0.15 -5.25 -0.10 -10.85 l0.15 -10.25 15.30 -0.15 15.35 -0.10 0.20 1.10 c0.30 1.60 -0.05 19.90 -0.40 20.45 -0.15 0.25 -6.85 0.45 -15.25 0.45 -11.70 0 -15.05 -0.15 -15.25 -0.65z m25.30 -10.35 l0 -5 -10 0 -10 0 0 5 0 5 10 0 10 0 0 -5z"/>
  <path d="M409.25 528.35 c-0.15 -0.35 -0.20 -5.25 -0.15 -10.85 l0.15 -10.25 15.50 0 15.50 0 0 10.75 0 10.75 -15.40 0.15 c-12.20 0.10 -15.45 0 -15.60 -0.55z m25.35 -5.95 c0.10 -0.35 0.10 -2.60 0 -5 l-0.15 -4.40 -9.75 0 -9.70 0 0 5 0 5 9.70 0 c7.30 0 9.75 -0.15 9.90 -0.60z"/>
  <path d="M29.95 524.50 c-3.75 -1.10 -6.05 -4.20 -6.15 -8.20 -0.05 -4.75 3.40 -8.30 8.05 -8.30 3.05 0 4.75 0.75 6.85 2.95 1.20 1.25 1.50 2.10 1.70 4.45 0.30 4.50 -2.05 7.95 -6.15 9.05 -2.25 0.60 -2.50 0.60 -4.30 0.05z"/>
  <path d="M39.95 448.50 c-6.65 -1.15 -14.30 -8.05 -17.90 -16.20 -0.60 -1.35 -1.55 -4.20 -2.20 -6.25 l-1.10 -3.80 -0.10 -187.50 c-0.15 -170.90 -0.10 -187.85 0.65 -191.50 2.30 -11.55 7.90 -19.85 16.10 -23.85 l3.35 -1.65 201.75 0 201.75 0 3.50 1.70 c7.10 3.50 12.45 10.70 15.35 20.80 l1.15 4 0 188.75 0 188.75 -1.10 4.10 c-3.20 11.85 -11.05 20.70 -20.05 22.60 -3.10 0.65 -397.30 0.70 -401.15 0.05z m196.05 -42.45 l0 -22 -13.45 -11 c-13.75 -11.25 -14.95 -12.55 -14.25 -15.20 0.40 -1.75 2.90 -3.85 4.50 -3.85 1.95 0 2.65 0.50 15.30 10.85 6.50 5.30 12.10 9.65 12.40 9.65 0.30 0 3.55 -2.40 7.15 -5.35 18.30 -15.05 18.40 -15.15 20.55 -15.15 1.55 0 4.10 2.10 4.50 3.75 0.70 2.75 -0.65 4.20 -13.90 15 l-12.80 10.45 0 22.40 0 22.40 2.65 0 2.65 0 14.25 -14.85 c7.80 -8.20 19.30 -20.15 25.50 -26.65 6.20 -6.45 15.50 -16.15 20.60 -21.50 l9.35 -9.70 -0.10 -23.30 -0.15 -23.25 -10.25 -0.10 -10.25 -0.10 -0.15 -27 -0.10 -27.05 10.35 -0.10 10.40 -0.15 0.15 -17.10 0.10 -17.15 5 0 5 0 -0.10 22.15 -0.15 22.10 -10.40 0 -10.35 0 0 17.10 0 17.15 10.40 0.10 10.35 0.15 0.25 30.75 0.25 30.75 5.95 13.25 c6.10 13.65 18 40.50 21.80 49.15 1.15 2.65 2.30 4.85 2.55 4.85 0.30 0 3.25 -2.20 6.65 -4.85 3.40 -2.70 8.70 -6.90 11.85 -9.40 3.15 -2.45 8.30 -6.50 11.45 -9 12.75 -10.05 16.05 -12.65 21 -16.50 2.80 -2.20 6.30 -4.90 7.70 -6.05 3.50 -2.80 13.40 -10.60 20.25 -15.95 8.45 -6.60 7.80 -5.55 5.85 -9.85 -0.90 -2 -3.35 -7.60 -5.45 -12.40 -2.05 -4.80 -6 -13.90 -8.75 -20.25 -2.75 -6.30 -14.15 -32.65 -25.35 -58.50 -11.20 -25.85 -22.95 -52.95 -26.10 -60.25 -3.15 -7.30 -9 -20.80 -13 -30 -7.05 -16.30 -21.25 -49 -29.15 -67.25 -2.15 -4.95 -5.70 -13.15 -7.90 -18.25 -2.20 -5.10 -6.90 -16 -10.50 -24.25 -3.55 -8.25 -7.25 -16.75 -8.10 -18.85 -0.90 -2.15 -1.80 -3.90 -2 -3.90 -0.25 0 -4.05 6.25 -8.55 13.90 -4.50 7.60 -9.90 16.80 -12 20.35 -2.10 3.60 -10.05 17.05 -17.65 30 -7.65 12.95 -17.75 30.10 -22.45 38.10 -4.75 8.05 -8.70 14.65 -8.85 14.65 -0.15 0 -1.75 -2.55 -3.55 -5.65 -16.70 -28.30 -47.65 -80.90 -51.90 -88.10 -2.95 -4.95 -7.25 -12.20 -9.55 -16.10 -2.30 -3.95 -4.30 -7.15 -4.45 -7.15 -0.20 0 -0.95 1.40 -1.65 3.15 -1.45 3.30 -3.45 7.95 -20.40 47.10 -5.85 13.50 -13.80 31.95 -17.75 41 -7.95 18.40 -20.55 47.45 -24.35 56.25 -2.75 6.30 -30.70 70.90 -41 94.75 -3.55 8.25 -9.70 22.45 -13.65 31.50 -3.95 9.10 -9.30 21.45 -11.90 27.50 -2.65 6.05 -5.35 12.30 -6.05 13.85 l-1.30 2.90 3.40 2.65 c19.30 15.30 82.70 64.85 83.05 64.85 0.35 0 3.05 -5.75 8.05 -17.25 0.50 -1.10 5.70 -12.80 11.55 -26 l10.70 -24 0.25 -30.75 0.25 -30.75 10.40 -0.15 10.35 -0.10 -0.10 -17.10 -0.15 -17.05 -10.25 -0.05 -10.25 -0.05 -0.15 -22.10 -0.10 -22.15 5 0 5 0 0.10 17.15 0.15 17.10 10.40 0.15 10.35 0.10 0 27 0 27 -10.50 0 -10.50 0 0 23.40 0 23.35 8.85 9.25 c4.85 5.10 13.70 14.30 19.60 20.50 5.95 6.20 17.65 18.40 26 27.15 l15.20 15.85 3.15 0 3.20 0 0 -21.95z"/>
  <path d="M236.15 360.55 c-2.10 -1.30 -4.15 -4.90 -4.15 -7.25 0 -3.05 1.95 -6.25 4.70 -7.65 5.30 -2.75 12.25 1.60 12.30 7.75 0 2.35 -1.70 5.35 -3.85 6.85 -2.40 1.60 -6.60 1.75 -9 0.30z"/>
  <path d="M192.85 245.65 c-0.20 -0.15 -0.35 -0.95 -0.35 -1.75 0 -3.25 -0.05 -3.25 -10.10 -3.30 l-9.15 -0.05 0 -5.30 0 -5.30 9.20 -0.10 c10.15 -0.10 9.75 0 10.30 -3.45 0.15 -1.05 0.50 -1.90 0.70 -1.90 0.40 0 14.70 8.65 16.75 10.15 0.90 0.60 0.30 1.10 -7.80 6 -4.80 2.95 -8.85 5.35 -9 5.35 -0.15 0 -0.40 -0.15 -0.55 -0.35z"/>
  <path d="M210.05 196.75 c-3.20 -2.75 -2.50 -5.40 2.55 -9.60 1.95 -1.60 4.50 -3.70 5.65 -4.65 1.15 -0.95 3.65 -3 5.50 -4.50 1.85 -1.50 5.40 -4.45 7.90 -6.50 2.45 -2.05 5.05 -4.20 5.75 -4.75 1.85 -1.40 4.60 -1.30 6.50 0.25 21.40 17.45 28.05 23.15 28.50 24.40 0.70 2.05 0.20 3.95 -1.50 5.35 -2.70 2.30 -4 1.85 -10.95 -3.80 -3.40 -2.75 -8.85 -7.15 -12.10 -9.80 -3.20 -2.60 -6 -4.95 -6.15 -5.20 -0.15 -0.25 -0.60 -0.45 -0.95 -0.45 -0.40 0 -6.10 4.35 -12.60 9.65 -6.55 5.35 -12.40 9.95 -13 10.25 -1.70 0.95 -3.45 0.70 -5.10 -0.65z"/>
 </g>
 <g fill="#f7938e">
  <path d="M29.50 544.50 c0 -0.35 70.65 -0.50 211 -0.50 140.35 0 211 0.15 211 0.50 0 0.35 -70.65 0.50 -211 0.50 -140.35 0 -211 -0.15 -211 -0.50z"/>
  <path d="M479.75 233.25 c0 -103.65 0.05 -146.15 0.10 -94.40 0.10 51.75 0.10 136.55 0 188.50 -0.05 51.90 -0.10 9.60 -0.10 -94.10z"/>
  <path d="M1.25 232.75 c0 -103.10 0.05 -145.40 0.10 -93.90 0.10 51.45 0.10 135.85 0 187.50 -0.05 51.65 -0.10 9.55 -0.10 -93.60z"/>
  <path d="M27.50 0.50 c0 -0.35 71.15 -0.50 212.50 -0.50 141.35 0 212.50 0.15 212.50 0.50 0 0.35 -71.15 0.50 -212.50 0.50 -141.35 0 -212.50 -0.15 -212.50 -0.50z"/>
 </g>
</svg>